<svg width="16" height="21" viewBox="0 0 16 21" fill="none" xmlns="http://www.w3.org/2000/svg">
<path d="M15.088 17.704C15.488 17.48 15.632 17.816 15.344 18.072C12.816 20.376 10.576 18.344 8.544 16.744C8.048 16.888 7.52 16.984 6.96 16.984C0.336 16.984 0.928 2.952 5.344 1.72C5.792 0.664 6.736 0.231998 7.744 0.231998C13.68 0.199999 14.784 12.152 10.128 15.88C11.904 17.176 13.52 18.584 15.088 17.704ZM6.96 16.696C7.376 16.696 7.76 16.6 8.128 16.424C7.264 15.768 6.448 15.256 5.664 15.256C4.224 15.24 5.36 16.696 6.96 16.696ZM6.192 14.152C7.312 14.152 8.368 14.68 9.36 15.352C12.336 11.48 11.888 0.632 7.52 0.712C6.736 0.712 6 1.064 5.68 1.656C5.984 1.608 6.304 1.64 6.64 1.72L6.56 3.416C6.144 3.304 5.76 3.432 5.424 3.704C5.84 5.768 8 5.56 8.176 3.8C8.128 3.832 8.064 3.848 7.984 3.848C7.728 3.848 7.52 3.64 7.52 3.368C7.52 3.112 7.728 2.904 7.984 2.904C8.288 2.904 8.448 3.128 8.464 3.384C8.624 5.768 5.792 6.328 5.184 3.944C3.424 5.848 2.736 12.104 4.448 15.096C4.64 14.584 5.232 14.168 6.192 14.152Z" fill="#FFA000"/>
<path d="M15.088 17.704C15.488 17.48 15.632 17.816 15.344 18.072C12.816 20.376 10.576 18.344 8.544 16.744C8.048 16.888 7.52 16.984 6.96 16.984C0.336 16.984 0.928 2.952 5.344 1.72C5.792 0.664 6.736 0.231998 7.744 0.231998C13.68 0.199999 14.784 12.152 10.128 15.88C11.904 17.176 13.52 18.584 15.088 17.704ZM6.96 16.696C7.376 16.696 7.76 16.6 8.128 16.424C7.264 15.768 6.448 15.256 5.664 15.256C4.224 15.24 5.36 16.696 6.96 16.696ZM6.192 14.152C7.312 14.152 8.368 14.68 9.36 15.352C12.336 11.48 11.888 0.632 7.52 0.712C6.736 0.712 6 1.064 5.68 1.656C5.984 1.608 6.304 1.64 6.64 1.72L6.56 3.416C6.144 3.304 5.76 3.432 5.424 3.704C5.84 5.768 8 5.56 8.176 3.8C8.128 3.832 8.064 3.848 7.984 3.848C7.728 3.848 7.52 3.64 7.52 3.368C7.52 3.112 7.728 2.904 7.984 2.904C8.288 2.904 8.448 3.128 8.464 3.384C8.624 5.768 5.792 6.328 5.184 3.944C3.424 5.848 2.736 12.104 4.448 15.096C4.64 14.584 5.232 14.168 6.192 14.152Z" fill="url(#paint0_radial_34_15)"/>
<path d="M15.088 17.704C15.488 17.48 15.632 17.816 15.344 18.072C12.816 20.376 10.576 18.344 8.544 16.744C8.048 16.888 7.52 16.984 6.96 16.984C0.336 16.984 0.928 2.952 5.344 1.72C5.792 0.664 6.736 0.231998 7.744 0.231998C13.68 0.199999 14.784 12.152 10.128 15.88C11.904 17.176 13.52 18.584 15.088 17.704ZM6.96 16.696C7.376 16.696 7.76 16.6 8.128 16.424C7.264 15.768 6.448 15.256 5.664 15.256C4.224 15.24 5.36 16.696 6.96 16.696ZM6.192 14.152C7.312 14.152 8.368 14.68 9.36 15.352C12.336 11.48 11.888 0.632 7.52 0.712C6.736 0.712 6 1.064 5.68 1.656C5.984 1.608 6.304 1.64 6.64 1.72L6.56 3.416C6.144 3.304 5.76 3.432 5.424 3.704C5.84 5.768 8 5.56 8.176 3.8C8.128 3.832 8.064 3.848 7.984 3.848C7.728 3.848 7.52 3.64 7.52 3.368C7.52 3.112 7.728 2.904 7.984 2.904C8.288 2.904 8.448 3.128 8.464 3.384C8.624 5.768 5.792 6.328 5.184 3.944C3.424 5.848 2.736 12.104 4.448 15.096C4.64 14.584 5.232 14.168 6.192 14.152Z" fill="white"/>
<path d="M15.088 17.704C15.488 17.48 15.632 17.816 15.344 18.072C12.816 20.376 10.576 18.344 8.544 16.744C8.048 16.888 7.52 16.984 6.96 16.984C0.336 16.984 0.928 2.952 5.344 1.72C5.792 0.664 6.736 0.231998 7.744 0.231998C13.68 0.199999 14.784 12.152 10.128 15.88C11.904 17.176 13.52 18.584 15.088 17.704ZM6.96 16.696C7.376 16.696 7.76 16.6 8.128 16.424C7.264 15.768 6.448 15.256 5.664 15.256C4.224 15.24 5.36 16.696 6.96 16.696ZM6.192 14.152C7.312 14.152 8.368 14.68 9.36 15.352C12.336 11.48 11.888 0.632 7.52 0.712C6.736 0.712 6 1.064 5.68 1.656C5.984 1.608 6.304 1.64 6.64 1.72L6.56 3.416C6.144 3.304 5.76 3.432 5.424 3.704C5.84 5.768 8 5.56 8.176 3.8C8.128 3.832 8.064 3.848 7.984 3.848C7.728 3.848 7.52 3.64 7.52 3.368C7.52 3.112 7.728 2.904 7.984 2.904C8.288 2.904 8.448 3.128 8.464 3.384C8.624 5.768 5.792 6.328 5.184 3.944C3.424 5.848 2.736 12.104 4.448 15.096C4.64 14.584 5.232 14.168 6.192 14.152Z" fill="url(#paint1_radial_34_15)"/>
<defs>
<radialGradient id="paint0_radial_34_15" cx="0" cy="0" r="1" gradientUnits="userSpaceOnUse" gradientTransform="translate(11 10.5) scale(11.4031 19.6387)">
<stop stop-color="#FBB809"/>
<stop offset="1" stop-color="#8B590C"/>
</radialGradient>
<radialGradient id="paint1_radial_34_15" cx="0" cy="0" r="1" gradientUnits="userSpaceOnUse" gradientTransform="translate(11 10.5) scale(11.4031 19.6387)">
<stop stop-color="#FBB809"/>
<stop offset="1" stop-color="#8B590C"/>
</radialGradient>
</defs>
</svg>
